<svg xmlns="http://www.w3.org/2000/svg" viewBox="0 0 59 43"><defs><style>.cls-4{fill:#fff}</style></defs><g id="Слой_2" data-name="Слой 2"><g id="Слой_1-2" data-name="Слой 1"><circle cx="44" cy="28" r="15" fill="#cae8ea"/><rect width="47" height="33" rx="4" fill="#89c5cc"/><rect x="6" y="5" width="45" height="31" rx="3" fill="#1a1a1a"/><path d="M48 6a2 2 0 012 2v25a2 2 0 01-2 2H9a2 2 0 01-2-2V8a2 2 0 012-2h39m0-2H9a4 4 0 00-4 4v25a4 4 0 004 4h39a4 4 0 004-4V8a4 4 0 00-4-4z"/><rect class="cls-4" x="10.5" y="12.5" width="12" height="2" rx="1" transform="rotate(30 16.497 13.5)"/><rect class="cls-4" x="10.42" y="17.3" width="11.98" height="2" rx="1" transform="rotate(-27.01 16.413 18.299)"/><rect class="cls-4" x="22" y="20" width="9" height="2" rx="1"/></g></g></svg>