<?xml version="1.0" standalone="no"?>
<!DOCTYPE svg PUBLIC "-//W3C//DTD SVG 20010904//EN"
 "http://www.w3.org/TR/2001/REC-SVG-20010904/DTD/svg10.dtd">
<svg version="1.0" xmlns="http://www.w3.org/2000/svg"
 width="944.000000pt" height="944.000000pt" viewBox="0 0 944.000000 944.000000"
 preserveAspectRatio="xMidYMid meet">
<metadata>
Created by potrace 1.11, written by Peter Selinger 2001-2013
</metadata>
<g transform="translate(0.000000,944.000000) scale(0.100000,-0.100000)"
fill="#000000" stroke="none">
<path d="M549 8156 c-2 -2 -21 -7 -42 -10 -21 -3 -53 -12 -71 -20 -19 -8 -36
-12 -39 -10 -2 3 -10 -2 -17 -11 -7 -8 -19 -15 -27 -15 -25 0 -138 -86 -192
-146 -55 -62 -112 -163 -132 -234 -7 -25 -15 -52 -18 -60 -9 -25 -11 -4242 -2
-4254 4 -6 11 -27 15 -46 3 -19 25 -72 47 -118 66 -137 185 -245 335 -306 75
-31 108 -37 223 -42 52 -2 96 -6 99 -9 3 -3 10 -1 16 4 12 9 56 -3 57 -16 5
-74 9 -106 14 -122 3 -11 8 -29 10 -41 2 -12 23 -60 45 -106 31 -65 58 -102
115 -158 70 -71 183 -146 218 -146 10 0 17 -4 17 -9 0 -5 15 -12 33 -15 17 -3
43 -9 57 -12 20 -5 125 -12 225 -15 6 -1 46 0 90 1 44 1 85 1 90 0 6 -1 15 -1
20 0 8 1 78 1 120 -1 6 0 46 0 90 0 44 1 129 1 189 1 60 0 111 2 113 4 3 2 17
0 33 -4 16 -4 31 -6 34 -3 7 7 194 5 206 -2 5 -3 11 -1 15 5 4 6 11 8 16 5 5
-4 46 -6 92 -5 45 1 91 1 102 0 11 -1 27 -1 35 -1 117 3 223 1 230 -4 6 -3 10
-2 10 3 0 4 21 6 48 3 26 -3 81 -4 122 -1 41 3 89 2 107 -1 18 -4 34 -4 37 -1
5 4 60 5 121 1 6 -1 46 0 90 1 44 1 85 1 90 0 6 -1 15 -1 20 0 8 1 78 1 120
-1 6 0 46 0 90 0 44 1 129 1 189 1 60 0 111 2 113 4 3 2 17 0 33 -4 16 -4 31
-6 34 -3 7 7 194 5 206 -2 5 -3 11 -1 15 5 4 6 11 8 16 5 5 -4 46 -6 92 -5 45
1 91 1 102 0 11 -1 27 -1 35 -1 117 3 223 1 230 -4 6 -3 10 -1 10 5 0 6 4 8
10 5 5 -3 42 -6 82 -6 83 0 108 -5 108 -22 0 -7 8 -19 18 -28 9 -8 28 -30 42
-49 51 -68 228 -242 341 -335 154 -126 484 -318 604 -351 6 -1 44 -16 85 -32
70 -28 136 -47 142 -41 2 1 14 -3 26 -10 13 -7 36 -15 50 -17 15 -3 43 -9 62
-14 19 -5 47 -12 63 -15 15 -3 37 -7 50 -10 12 -2 42 -7 67 -10 25 -3 65 -8
90 -12 63 -9 432 -9 510 0 87 9 180 24 215 33 6 1 28 5 50 9 22 4 58 13 81 21
22 7 49 15 60 17 10 1 25 6 32 10 6 5 12 6 12 3 0 -14 259 90 375 150 210 109
308 173 475 313 77 65 229 217 285 285 22 27 45 54 50 60 6 6 19 25 29 41 11
17 25 34 33 38 7 4 13 15 13 22 0 8 5 15 10 15 6 0 10 7 10 15 0 8 5 15 10 15
6 0 10 6 10 14 0 8 4 16 9 18 28 11 224 398 246 488 1 3 5 12 8 20 7 15 55
173 62 200 21 89 27 118 30 135 9 49 15 81 21 124 3 25 8 57 11 71 10 45 10
490 1 490 -5 0 -7 4 -4 9 4 5 1 42 -5 83 -6 40 -12 84 -14 98 -4 38 -34 165
-61 260 -22 81 -35 117 -83 240 -29 75 -132 282 -148 298 -7 7 -13 20 -13 28
0 8 -4 14 -9 14 -5 0 -13 9 -16 21 -4 12 -13 29 -21 38 -7 9 -39 53 -71 98
-151 212 -385 438 -620 597 -45 30 -54 48 -42 83 5 12 4 25 -1 28 -5 3 -5 18
0 35 5 17 5 30 0 30 -5 0 -5 13 0 29 4 15 4 34 0 42 -5 7 -5 20 0 29 5 9 5 22
0 30 -5 8 -5 21 0 30 5 9 5 22 0 30 -4 7 -4 24 0 36 6 14 5 26 0 29 -5 3 -5
18 0 35 5 17 5 30 0 30 -5 0 -7 6 -4 13 8 23 10 98 2 103 -4 3 -3 16 2 29 6
15 6 27 0 30 -5 3 -6 15 -1 28 5 12 5 34 0 49 -4 16 -4 28 1 28 5 0 5 13 0 30
-5 17 -5 30 0 30 5 0 5 13 0 30 -5 17 -5 30 0 30 5 0 5 13 0 30 -5 17 -5 30 0
30 5 0 5 13 0 30 -5 17 -5 30 0 30 5 0 5 13 0 30 -5 17 -5 30 0 30 5 0 5 13 0
30 -5 19 -5 30 1 30 6 0 8 4 5 9 -3 5 -8 44 -11 87 -8 107 -10 123 -18 130 -4
4 -7 17 -7 29 0 11 -5 26 -11 32 -6 6 -11 17 -13 24 -3 22 -58 119 -68 119 -4
0 -8 6 -8 13 0 8 -31 43 -69 78 -68 64 -202 143 -259 154 -15 3 -38 7 -52 11
-43 9 -180 19 -205 14 -5 -1 -14 -1 -20 0 -5 1 -22 2 -37 2 -22 -1 -28 4 -29
21 -9 181 -87 344 -219 459 -43 38 -154 108 -180 114 -3 0 -12 4 -20 7 -87 37
-16 37 -3346 37 -1760 0 -3203 -2 -3205 -4z"/>
</g>
</svg>
